<svg xmlns="http://www.w3.org/2000/svg" xmlns:xlink="http://www.w3.org/1999/xlink" width="500" zoomAndPan="magnify" viewBox="0 0 375 374.999991" height="500" preserveAspectRatio="xMidYMid meet" version="1.0"><defs><clipPath id="220bef3d7d"><path d="M 150 100.246094 L 278.082031 100.246094 L 278.082031 274.996094 L 150 274.996094 Z M 150 100.246094 " clip-rule="nonzero"/></clipPath><clipPath id="27cc56a450"><path d="M 96.582031 100.246094 L 179 100.246094 L 179 144 L 96.582031 144 Z M 96.582031 100.246094 " clip-rule="nonzero"/></clipPath><clipPath id="7d8af4b512"><path d="M 150 122 L 257 122 L 257 274.996094 L 150 274.996094 Z M 150 122 " clip-rule="nonzero"/></clipPath><clipPath id="b7f7f23d76"><path d="M 96.582031 100.246094 L 179 100.246094 L 179 144 L 96.582031 144 Z M 96.582031 100.246094 " clip-rule="nonzero"/></clipPath></defs><g clip-path="url(#220bef3d7d)"><path fill="#000000" d="M 231.398438 222.992188 L 265.925781 274.75 L 212.949219 274.75 L 179.703125 224.890625 L 150.628906 181.265625 C 150.628906 181.265625 216.042969 181.265625 216.066406 181.265625 C 226.238281 181.265625 234.765625 172.730469 234.765625 162.570312 C 234.765625 152.253906 226.382812 143.871094 216.066406 143.871094 L 200.332031 143.871094 L 171.257812 100.246094 L 216.066406 100.246094 C 250.5 100.246094 278.390625 128.136719 278.390625 162.570312 C 278.390625 179.769531 271.410156 195.351562 260.128906 206.632812 C 252.375 214.382812 242.015625 220.28125 231.398438 222.992188 " fill-opacity="1" fill-rule="evenodd"/></g><g clip-path="url(#27cc56a450)"><path fill="#8906e6" d="M 178.667969 143.871094 L 125.6875 143.871094 L 96.601562 100.246094 L 149.582031 100.246094 Z M 178.667969 143.871094 " fill-opacity="1" fill-rule="evenodd"/></g><g clip-path="url(#7d8af4b512)"><path fill="#000000" d="M 215.359375 204.464844 L 195.195312 204.464844 L 208.769531 224.871094 L 242.019531 274.75 L 212.9375 274.75 L 192 243.289062 L 150.648438 181.246094 C 150.648438 181.246094 216.039062 181.246094 216.085938 181.246094 C 226.21875 181.246094 234.75 172.714844 234.75 162.582031 C 234.75 152.257812 226.363281 143.871094 216.085938 143.871094 L 200.339844 143.871094 L 185.800781 122.058594 L 215.359375 122.058594 C 238.144531 122.058594 256.5625 140.527344 256.5625 163.261719 C 256.5625 185.996094 238.144531 204.464844 215.359375 204.464844 " fill-opacity="1" fill-rule="evenodd"/></g><g clip-path="url(#b7f7f23d76)"><path fill="#8906e6" d="M 96.601562 100.246094 L 125.6875 143.871094 L 178.667969 143.871094 L 164.125 122.058594 L 142.054688 122.058594 C 125.082031 122.058594 108.953125 114.644531 97.902344 101.761719 Z M 96.601562 100.246094 " fill-opacity="1" fill-rule="evenodd"/></g></svg>