<?xml version="1.0" standalone="no"?>
<!DOCTYPE svg PUBLIC "-//W3C//DTD SVG 20010904//EN"
 "http://www.w3.org/TR/2001/REC-SVG-20010904/DTD/svg10.dtd">
<svg version="1.0" xmlns="http://www.w3.org/2000/svg"
 width="226.000000pt" height="42.000000pt" viewBox="0 0 226.000000 42.000000"
 preserveAspectRatio="xMidYMid meet">

<g transform="translate(0.000000,42.000000) scale(0.100000,-0.100000)"
fill="#000000" stroke="none">
<path d="M265 368 c4 -13 22 -71 41 -129 38 -118 41 -144 19 -195 -13 -32 -17
-35 -52 -32 -36 3 -37 4 -59 73 -25 81 -32 76 -8 -6 21 -69 29 -79 70 -79 25
0 38 7 50 25 32 48 29 93 -15 233 -23 73 -44 132 -47 132 -3 0 -2 -10 1 -22z"/>
</g>
</svg>
